<svg xmlns="http://www.w3.org/2000/svg" xmlns:xlink="http://www.w3.org/1999/xlink" width="297.74" height="115.398" viewBox="0 0 297.74 115.398"><defs><style>.a{fill:none;}.b{clip-path:url(#a);}.c{fill:#ef2057;}.d{fill:#d0a0db;}</style><clipPath id="a"><rect class="a" width="297.74" height="115.398" transform="translate(0 50)"/></clipPath></defs><g transform="translate(0 -50)"><g class="b" transform="translate(0)"><path class="c" d="M-747.5,194.783a31.44,31.44,0,0,0-6.489-18.313c-3.858-4.994-9.371-9.39-15.7-10.831a36.014,36.014,0,0,0-16.069,0c-7.34,1.672-14.234,7.617-18.063,13.89q-3.336,5.464-7,10.7c-.105-.423-.22-.836-.349-1.232A31.314,31.314,0,0,0-822,173.3c-5.1-3.938-11.693-6.786-18.313-6.489-7.8.35-15.959,2.9-21.371,8.853q-3.5,3.846-7.1,7.594a26.092,26.092,0,0,0-3.556-9.566c-4.161-6.453-10.356-12.134-18.062-13.889a31.939,31.939,0,0,0-23.289,3.047l-38.729,21.831a31.1,31.1,0,0,0-13.8,17.755l-22.268,16.783A22.832,22.832,0,0,0-996.969,227a22.758,22.758,0,0,0-5.41,10.278c-1.9,6.886-1.166,15.94,2.477,22.333l-19.482,26.032-3.047,7.22q-.54,4.017-1.08,8.035a29.93,29.93,0,0,0,6.489,18.313,28.834,28.834,0,0,0,12.089,9.308c.347.147.7.288,1.061.426-2.114,5.886-2.68,12.894-.856,18.531,2.366,7.313,6.9,14.368,13.889,18.062l7.22,3.047a30.439,30.439,0,0,0,16.069,0c37.775-6.875,74.249-19.368,108.836-35.982,35.066-16.845,69.29-38.458,91.5-71.166a123.349,123.349,0,0,0,15.035-31.544,99,99,0,0,0,3.56-17.142A96.421,96.421,0,0,0-747.5,194.783Z" transform="translate(966.049 -221.323)"/><path class="d" d="M-803.8,553.85a9.113,9.113,0,0,0-2.642-6.378,9.371,9.371,0,0,0-6.377-2.642,9.305,9.305,0,0,0-6.378,2.642,9.165,9.165,0,0,0-2.642,6.378,9.114,9.114,0,0,0,2.642,6.377,9.371,9.371,0,0,0,6.378,2.642,9.3,9.3,0,0,0,6.377-2.642A9.163,9.163,0,0,0-803.8,553.85Z" transform="translate(1087.597 -465.426)"/><path class="c" d="M-498.759,295.8l-49.623-1.793c-6.933-.251-6.923,10.523,0,10.773l49.623,1.793C-491.826,306.823-491.836,296.049-498.759,295.8Z" transform="translate(777.366 -275.579)"/><path class="c" d="M-579.238,387.228l-13.529-9.02c-5.784-3.856-11.185,5.471-5.437,9.3l13.529,9.019C-578.89,400.387-573.491,391.06-579.238,387.228Z" transform="translate(796.268 -309.022)"/><path class="c" d="M-685.026,444.852l-3.382-3.383a5.45,5.45,0,0,0-7.618,0,5.484,5.484,0,0,0,0,7.618l3.382,3.382a5.449,5.449,0,0,0,7.618,0A5.483,5.483,0,0,0-685.026,444.852Z" transform="translate(835.178 -334.166)"/><path class="c" d="M-787.651,481.2c-6.932,0-6.943,10.773,0,10.773S-780.707,481.2-787.651,481.2Z" transform="translate(873.438 -350.743)"/><path class="c" d="M-885.606,513.226c-6.932,0-6.944,10.773,0,10.773S-878.663,513.226-885.606,513.226Z" transform="translate(912.768 -363.601)"/></g></g></svg>