<svg xmlns="http://www.w3.org/2000/svg" xmlns:xlink="http://www.w3.org/1999/xlink" width="262.139" height="117.723" viewBox="0 0 262.139 117.723"><defs><style>.a{fill:none;}.b{clip-path:url(#a);}.c{fill:#d0a0db;}.d{fill:#ef2057;}</style><clipPath id="a"><rect class="a" width="262.139" height="117.723" transform="translate(0 78)"/></clipPath></defs><g transform="translate(-498.685 -340.685)"><g class="b" transform="translate(498.685 262.685)"><g transform="translate(-51.737 -31.944)"><path class="c" d="M782.287,379.2c-6.022-9.341-17.794-12.8-27.674-7.257l-6.017,3.376q.924-18.974,2.6-37.9a125.815,125.815,0,0,0,9.111-21.8,104,104,0,0,0,4.625-36.775c-.516-8.376-2.04-16.743-2.36-25.13q1.534-8.361,3.211-16.7c1.721-8.532-1-16.942-7.879-21.748-3.6-6.121-10.321-10.535-17.5-10.214-11.172.5-19.959,8.885-20.227,20.227q-.12,5.115-.679,10.191a128.965,128.965,0,0,1-7.559,27.094,161.255,161.255,0,0,1-18,30.373,201.415,201.415,0,0,1-32.206,31.885c-33.652,25.372-72.765,41.833-111.005,58.936-39.86,17.828-79.44,37.388-111.828,67.272-9.1,8.4-17.6,18.026-23.73,28.829-6.715,11.834-11.222,26.163-9.472,39.883.71,5.571,1.787,10.165,5.924,14.3,3.508,3.508,9.264,6.15,14.3,5.924,5.231-.234,10.656-1.953,14.3-5.924,3.36-3.661,6.584-9.125,5.924-14.3-.152-1.2-.25-2.391-.3-3.583a18.928,18.928,0,0,0,11.343-2.795c.45.59.922,1.165,1.429,1.717a21.037,21.037,0,0,0,10.283,5.592,19.924,19.924,0,0,0-3.139,20.709,19.316,19.316,0,0,0,8.276,9.672c5.084,2.686,9.936,2.986,15.586,2.039,35.86-6.01,68.286-24.221,99.721-42.022l83.26-7.1,56.265-4.8c5.21-.445,10.6-1.891,14.3-5.924,3.509-3.823,6.237-8.947,5.924-14.3q-.355-6.07-.625-12.143c3.6-2.451,6.595-7.428,7.622-11.157,1.333-4.842.731-11.289-2.039-15.586a23.7,23.7,0,0,0-6.551-6.852q-.062-5.429-.057-10.858l27.577-15.472C784.266,401.693,788.135,388.269,782.287,379.2Z" transform="translate(-405.322 -205.039)"/><path class="c" d="M11.806,5.9a5.964,5.964,0,0,0-1.728-4.173A6.132,6.132,0,0,0,5.905,0,6.088,6.088,0,0,0,1.732,1.728,6,6,0,0,0,0,5.9a5.964,5.964,0,0,0,1.728,4.173A6.133,6.133,0,0,0,5.905,11.8a6.089,6.089,0,0,0,4.173-1.728A6,6,0,0,0,11.806,5.9Z" transform="matrix(0.985, 0.174, -0.174, 0.985, 114.738, 155.722)"/><path class="c" d="M6.415,3.207A3.241,3.241,0,0,0,5.476.939,3.333,3.333,0,0,0,3.209,0,3.309,3.309,0,0,0,.941.939,3.26,3.26,0,0,0,0,3.207,3.241,3.241,0,0,0,.941,5.474a3.333,3.333,0,0,0,2.268.939,3.309,3.309,0,0,0,2.267-.939A3.258,3.258,0,0,0,6.415,3.207Z" transform="matrix(0.985, 0.174, -0.174, 0.985, 72.755, 179.861)"/><path class="d" d="M9.757,4.877A4.93,4.93,0,0,0,8.328,1.428,5.069,5.069,0,0,0,4.88,0,5.033,5.033,0,0,0,1.432,1.428,4.958,4.958,0,0,0,0,4.877,4.929,4.929,0,0,0,1.432,8.325,5.068,5.068,0,0,0,4.88,9.753,5.03,5.03,0,0,0,8.328,8.325,4.958,4.958,0,0,0,9.757,4.877Z" transform="matrix(0.985, 0.174, -0.174, 0.985, 164.861, 125.645)"/></g></g></g></svg>