<svg xmlns="http://www.w3.org/2000/svg" width="309.185" height="88.781" viewBox="0 0 309.185 88.781"><defs><style>.a,.b{fill:#ad8dd0;}.a{font-size:22px;font-family:Nutmeg-Bold, Nutmeg;font-weight:700;isolation:isolate;}.b{stroke:#ad8dd0;stroke-width:1.144px;}</style></defs><g transform="translate(249.165 495.944)"><g transform="translate(-162.98 -472.115)"><text class="a" transform="translate(0 17)"><tspan x="0" y="0">Directorio Digital</tspan><tspan x="0" y="27">de Mujeres SISEMH</tspan></text></g><g transform="translate(-248.593 -495.372)"><g transform="translate(7.737 27.349)"><g transform="translate(12.913 11.908)"><path class="b" d="M-10.591-422.985a.926.926,0,0,0-.926.926.926.926,0,0,0,.926.926.926.926,0,0,0,.926-.926h0A.926.926,0,0,0-10.591-422.985Z" transform="translate(11.517 422.985)"/></g><g transform="translate(18.47 11.908)"><path class="b" d="M-.344-422.985a.926.926,0,0,0-.926.926.926.926,0,0,0,.926.926.926.926,0,0,0,.926-.926h0A.926.926,0,0,0-.344-422.985Z" transform="translate(1.27 422.985)"/></g><g transform="translate(14.766 16.539)"><path class="b" d="M-6.248-412.594a1.851,1.851,0,0,0,1.852-1.85v0H-8.1a1.851,1.851,0,0,0,1.85,1.852Z" transform="translate(8.1 414.446)"/></g><g transform="translate(17.97 7.911)"><path class="b" d="M-2.192-430.261l.115-.05c-.024-.015-.05-.027-.074-.043C-2.162-430.323-2.18-430.291-2.192-430.261Z" transform="translate(2.192 430.354)"/></g><path class="b" d="M-4.572-435.116a3.129,3.129,0,0,0,.043-.513,3.229,3.229,0,0,0-3.225-3.225,3.121,3.121,0,0,0-.513.043,3.233,3.233,0,0,0-3.138-2.477,3.124,3.124,0,0,0-.513.043,3.225,3.225,0,0,0-3.884-2.392q-.137.033-.272.078a3.206,3.206,0,0,0-4.461-.811,3.194,3.194,0,0,0-.811.811,3.225,3.225,0,0,0-4.079,2.042c-.029.089-.055.18-.077.272a3.129,3.129,0,0,0-.513-.043,3.231,3.231,0,0,0-3.138,2.477,3.126,3.126,0,0,0-.513-.043,3.229,3.229,0,0,0-3.225,3.225,3.317,3.317,0,0,0,.041.513,3.232,3.232,0,0,0-2.476,3.138,3.2,3.2,0,0,0,.576,1.826,3.2,3.2,0,0,0,.106,3.8,3.22,3.22,0,0,0,.555,4.52,3.223,3.223,0,0,0,1.238.6,3.317,3.317,0,0,0-.041.513,3.23,3.23,0,0,0,2.516,3.147c.01.046.034.091.047.137a6.112,6.112,0,0,0-1.216,3.66v7.6a.791.791,0,0,0,.791.79H-6.671a.791.791,0,0,0,.79-.79v-7.6A6.124,6.124,0,0,0-7.1-417.434c.013-.046.036-.092.047-.137a3.232,3.232,0,0,0,2.516-3.147,3.124,3.124,0,0,0-.043-.513A3.219,3.219,0,0,0-2.185-425.1a3.223,3.223,0,0,0-.6-1.242,3.193,3.193,0,0,0,.108-3.8,3.2,3.2,0,0,0,.576-1.826A3.233,3.233,0,0,0-4.572-435.116ZM-29.96-413.775a4.58,4.58,0,0,1,4.116-4.549c-.108,3.929-.458,9.037-1.985,11.362H-29.96Zm11.26-9.862h-.124a5.67,5.67,0,0,1-5.475-5.835v-3.283a2.579,2.579,0,0,1,.565-1.891c.664-.663,2.047-.726,3.686-.726h1.35a7.916,7.916,0,0,1,4.6,1.889,2.393,2.393,0,0,1,.875,1.861v2.146a5.675,5.675,0,0,1-5.476,5.839Zm-2.246,1.886.075-.3h4.322l.077.3a4.472,4.472,0,0,0,2.667,3.058c-3.783,2.964-6.025,2.964-9.81,0a4.471,4.471,0,0,0,2.668-3.058Zm-5.06,14.786c.985-2.057,1.519-5.29,1.711-10.255,4.156,3.148,7.005,3.15,11.159.011.13,4.792.49,8.217,1.54,10.246Zm18.546,0H-9.676c-1.663-1.754-1.842-7.732-1.9-11.362a4.579,4.579,0,0,1,4.121,4.551Zm3.214-22.592a1.62,1.62,0,0,1,.569,1.23,1.648,1.648,0,0,1-.692,1.335.79.79,0,0,0-.185,1.1.8.8,0,0,0,.185.186,1.64,1.64,0,0,1,.388,2.286,1.639,1.639,0,0,1-1.34.69,1.533,1.533,0,0,1-.239-.027.79.79,0,0,0-.9.661.79.79,0,0,0,.106.53,1.612,1.612,0,0,1,.242.844,1.645,1.645,0,0,1-1.643,1.643.776.776,0,0,0-.637.347,6.123,6.123,0,0,0-3.642-1.2h-.084a2.9,2.9,0,0,1-2.82-2.2l-.227-.9-.009-.019a7.494,7.494,0,0,0,3.529-6.415v-2.147a3.936,3.936,0,0,0-1.469-3.1,9.294,9.294,0,0,0-5.588-2.233h-.753c-2.241-.02-4.191-.02-5.4,1.184a4.034,4.034,0,0,0-1.031,3.013v3.283a7.49,7.49,0,0,0,3.619,6.473l-.217.869a2.9,2.9,0,0,1-2.821,2.2h-.082a6.113,6.113,0,0,0-3.641,1.2.776.776,0,0,0-.637-.347,1.644,1.644,0,0,1-1.643-1.643,1.616,1.616,0,0,1,.242-.844.8.8,0,0,0-.281-1.09.8.8,0,0,0-.528-.1,1.351,1.351,0,0,1-.224.025,1.64,1.64,0,0,1-1.642-1.638,1.64,1.64,0,0,1,.69-1.34.79.79,0,0,0,.186-1.1.784.784,0,0,0-.186-.185,1.646,1.646,0,0,1-.691-1.335,1.623,1.623,0,0,1,.568-1.23.793.793,0,0,0,.075-1.117.809.809,0,0,0-.075-.074,1.616,1.616,0,0,1-.569-1.23,1.644,1.644,0,0,1,1.643-1.643,1.609,1.609,0,0,1,.239.027.79.79,0,0,0,.9-.663.788.788,0,0,0-.105-.528,1.61,1.61,0,0,1-.242-.843,1.644,1.644,0,0,1,1.643-1.643,1.627,1.627,0,0,1,.843.243.792.792,0,0,0,.848-.027.807.807,0,0,0,.342-.783,1.357,1.357,0,0,1-.027-.224,1.646,1.646,0,0,1,1.644-1.644,1.615,1.615,0,0,1,.843.243.792.792,0,0,0,.848-.027.8.8,0,0,0,.34-.785,1.533,1.533,0,0,1-.024-.222,1.642,1.642,0,0,1,1.64-1.645,1.643,1.643,0,0,1,.925.283.792.792,0,0,0,1.1-.215.774.774,0,0,0,.091-.18,1.627,1.627,0,0,1,2.065-1.017,1.627,1.627,0,0,1,1.017,1.017.792.792,0,0,0,1.009.486.811.811,0,0,0,.181-.091,1.623,1.623,0,0,1,.92-.283,1.589,1.589,0,0,1,1.643,1.534,1.566,1.566,0,0,1-.027.349.79.79,0,0,0,.663.9.787.787,0,0,0,.528-.105,1.617,1.617,0,0,1,.844-.243,1.645,1.645,0,0,1,1.643,1.644,1.523,1.523,0,0,1-.027.238.792.792,0,0,0,.665.9.793.793,0,0,0,.526-.1,1.62,1.62,0,0,1,.845-.243,1.645,1.645,0,0,1,1.643,1.643,1.61,1.61,0,0,1-.242.843.8.8,0,0,0,.283,1.09.8.8,0,0,0,.524.1,1.383,1.383,0,0,1,.226-.025,1.646,1.646,0,0,1,1.643,1.643,1.616,1.616,0,0,1-.569,1.23.79.79,0,0,0-.078,1.114.8.8,0,0,0,.078.078Z" transform="translate(35.327 444.942)"/></g><g transform="translate(0 9.547)"><g transform="translate(20.825 66.461)"><path class="b" d="M-7.87-348.574a3.323,3.323,0,0,1-3.323-3.323A3.323,3.323,0,0,1-7.87-355.22,3.323,3.323,0,0,1-4.547-351.9h0A3.326,3.326,0,0,1-7.87-348.574Zm0-4.983A1.661,1.661,0,0,0-9.532-351.9a1.661,1.661,0,0,0,1.661,1.662A1.662,1.662,0,0,0-6.21-351.9h0A1.664,1.664,0,0,0-7.87-353.558Z" transform="translate(11.193 355.22)"/></g><g transform="translate(1.664 61.476)"><path class="b" d="M-2.441-362.749H-45.7a.831.831,0,0,1-.829-.833.831.831,0,0,1,.829-.829H-2.441a.831.831,0,0,1,.829.833A.831.831,0,0,1-2.441-362.749Z" transform="translate(46.525 364.411)"/></g><g transform="translate(1.662 9.97)"><path class="b" d="M-2.443-457.723H-45.7a.831.831,0,0,1-.831-.831.831.831,0,0,1,.831-.831H-2.443a.831.831,0,0,1,.831.831A.831.831,0,0,1-2.443-457.723Z" transform="translate(46.529 459.385)"/></g><g transform="translate(19.994 4.985)"><path class="b" d="M-5.249-466.914h-6.646a.831.831,0,0,1-.831-.831.831.831,0,0,1,.831-.831h6.646a.831.831,0,0,1,.831.831A.831.831,0,0,1-5.249-466.914Z" transform="translate(12.725 468.576)"/></g><g transform="translate(0 14.955)"><path class="b" d="M-47.1-445.208h-1.661a.832.832,0,0,1-.832-.831h0v-3.324a.831.831,0,0,1,.832-.83H-47.1a.831.831,0,0,1,.831.83h0v3.324a.831.831,0,0,1-.831.831Z" transform="translate(49.593 450.193)"/></g><g transform="translate(0 23.261)"><path class="b" d="M-47.1-429.891h-1.661a.831.831,0,0,1-.832-.83h0v-3.324a.831.831,0,0,1,.832-.831H-47.1a.831.831,0,0,1,.831.831h0v3.324a.831.831,0,0,1-.831.83Z" transform="translate(49.593 434.876)"/></g><g transform="translate(44.916 28.246)"><path class="b" d="M35.72-419.039H34.06a.831.831,0,0,1-.831-.831h0v-4.984a.831.831,0,0,1,.831-.831h1.66a.83.83,0,0,1,.831.829v4.986a.83.83,0,0,1-.83.831Z" transform="translate(-33.229 425.685)"/></g><g transform="translate(1.571 26.431)"><path class="b" d="M-45.775-427.187a.83.83,0,0,1-.587-.243l-.091-.091a.83.83,0,0,1,0-1.173l0,0,.091-.093a.83.83,0,0,1,1.174,0,.831.831,0,0,1,.244.589v.183a.833.833,0,0,1-.512.768A.852.852,0,0,1-45.775-427.187Z" transform="translate(46.696 429.032)"/></g><g transform="translate(1.664)"><path class="b" d="M-9.142-399.678H-38.993a7.539,7.539,0,0,1-7.532-7.532v-63.025a7.541,7.541,0,0,1,7.532-7.533H-9.141a7.542,7.542,0,0,1,7.531,7.533v3.288l.056,28.438-.056,31.3A7.54,7.54,0,0,1-9.142-399.678Zm-29.851-76.428a5.877,5.877,0,0,0-5.87,5.871v63.026a5.877,5.877,0,0,0,5.87,5.872H-9.141a5.877,5.877,0,0,0,5.87-5.872l.056-31.3-.056-28.436v-3.288a5.876,5.876,0,0,0-5.87-5.871Z" transform="translate(46.525 477.768)"/></g></g><g transform="translate(45.68)"><g transform="translate(0.001 4.986)"><path class="b" d="M38.794-481.194a.83.83,0,0,1-.83-.829h0a2.5,2.5,0,0,0-2.493-2.493.831.831,0,0,1-.831-.831.831.831,0,0,1,.831-.831,4.159,4.159,0,0,1,4.156,4.156.83.83,0,0,1-.831.829Z" transform="translate(-34.64 486.179)"/></g><g transform="translate(0)"><path class="b" d="M43.777-485.4a.829.829,0,0,1-.83-.829v0a7.485,7.485,0,0,0-7.478-7.477.831.831,0,0,1-.831-.831.831.831,0,0,1,.831-.831,9.15,9.15,0,0,1,9.139,9.139.831.831,0,0,1-.831.831Z" transform="translate(-34.638 495.372)"/></g></g></g></g></svg>