<svg xmlns="http://www.w3.org/2000/svg" width="22" height="22" viewBox="0 0 22 22"><defs><style>.a{fill:#acaeaf;}</style></defs><g transform="translate(-3.7 -5.2)"><path class="a" d="M25.667,25.6a1.967,1.967,0,1,0,1.967,1.967A1.967,1.967,0,0,0,25.667,25.6Z" transform="translate(-11.057 -11.278)"/><path class="a" d="M24.589,19.2H19.67a2.172,2.172,0,0,0-2.37,2.37v4.919a2.465,2.465,0,0,0,.671,1.789,2.521,2.521,0,0,0,1.744.626h4.874a2.444,2.444,0,0,0,1.744-.626A2.291,2.291,0,0,0,27,26.533V21.615a2.521,2.521,0,0,0-.626-1.744A2.394,2.394,0,0,0,24.589,19.2Zm-2.459,7.87a3.041,3.041,0,1,1,0-6.081,3.041,3.041,0,1,1,0,6.081Zm3.175-5.5a.715.715,0,1,1,.715-.715A.706.706,0,0,1,25.3,21.57Z" transform="translate(-7.519 -7.74)"/><path class="a" d="M14.7,5.2a11,11,0,1,0,11,11A10.992,10.992,0,0,0,14.7,5.2Zm5.858,13.593a3.545,3.545,0,0,1-.984,2.549,3.48,3.48,0,0,1-2.5.939H12.2a3.48,3.48,0,0,1-2.5-.939,3.369,3.369,0,0,1-.984-2.549V13.875A3.309,3.309,0,0,1,12.2,10.387h4.919a3.3,3.3,0,0,1,3.443,3.488Z" transform="translate(0)"/></g></svg>