<svg xmlns="http://www.w3.org/2000/svg" width="22" height="22" viewBox="0 0 22 22"><defs><style>.a{fill:rgba(147,209,255,0.15);}.b{fill:none;}.c{fill:#93d1ff;}</style></defs><rect class="a" width="22" height="22" rx="5"/><g transform="translate(3.143 3.143)"><rect class="b" width="15.714" height="15.714"/><g transform="translate(2.357 1.571)"><path class="c" d="M10.6,16.175a.5.5,0,0,1-.357-.148L6.711,12.493a5.5,5.5,0,1,1,7.781,0h0l-3.534,3.534A.5.5,0,0,1,10.6,16.175Zm0-12.061A4.49,4.49,0,0,0,7.425,11.78L10.6,14.956l3.177-3.177A4.49,4.49,0,0,0,10.6,4.114Zm3.534,8.022h0Z" transform="translate(-5.1 -3.105)"/><path class="c" d="M14.019,14.038a2.019,2.019,0,1,1,2.019-2.019A2.021,2.021,0,0,1,14.019,14.038Zm0-3.028a1.009,1.009,0,1,0,1.009,1.009A1.01,1.01,0,0,0,14.019,11.009Z" transform="translate(-8.517 -6.52)"/></g></g></svg>