<svg xmlns="http://www.w3.org/2000/svg" width="58" height="58" viewBox="0 0 58 58"><defs><style>.a{fill:none;}.b{fill:#fff;}</style></defs><rect class="a" width="58" height="58"/><g transform="translate(-5.253 -6.722)"><path class="b" d="M46.25,15A13.166,13.166,0,0,1,60,28.135c0,5.274-3.559,10.163-8.242,15.087S41.139,53.144,35.879,58.408a1.3,1.3,0,0,1-1.757,0c-5.261-5.264-11.2-10.262-15.879-15.186S10,33.408,10,28.135A12.835,12.835,0,0,1,23.125,15c4.832,0,8.872,3.991,11.856,6.507C38.273,18.628,42.139,15.075,46.25,15Zm0,2.5c-4.5.49-7.3,4.046-10.469,6.606a1.288,1.288,0,0,1-1.562,0C30.983,21.518,26.667,17.5,23.125,17.5,17.458,17.5,12.5,21.255,12.5,28.135c0,4.107,3,8.578,7.539,13.348C24.332,46,29.871,50.745,35,55.788,40.129,50.745,45.668,46,49.961,41.483A51.763,51.763,0,0,0,53.4,37.515h-.9a1.27,1.27,0,0,1-1.054-.586L49.9,34.447l-1.816,7.719a1.25,1.25,0,0,1-2.442-.019L43.418,31.77,41.856,43.926a1.25,1.25,0,0,1-2.441.176L37.7,37.926l-.84,4.2a1.25,1.25,0,0,1-2.344.313l-2.149-4.3H27.774a2.495,2.495,0,1,1-2.149-3.753,2.476,2.476,0,0,1,2.149,1.251h5.351a1.278,1.278,0,0,1,1.113.684l.879,1.739,1.152-5.8a1.25,1.25,0,0,1,2.442-.1l1.464,5.316,1.719-13.27a1.3,1.3,0,0,1,1.426-1.074,1.283,1.283,0,0,1,1.035.977l2.578,12.058,1.231-5.2A1.25,1.25,0,0,1,50.43,30.6l2.754,4.416h1.972A13.314,13.314,0,0,0,57.5,28.135c.036-6.32-5.554-10.556-11.25-10.632Z" transform="translate(0 0)"/></g></svg>