<svg xmlns="http://www.w3.org/2000/svg" width="20" height="20" viewBox="0 0 20 20"><defs><style>.a{fill:#acaeaf;}.b{fill:#fff;}</style></defs><path class="a" d="M20,10A10,10,0,1,0,8.438,19.879V12.891H5.9V10H8.438V7.8a3.529,3.529,0,0,1,3.777-3.891,15.379,15.379,0,0,1,2.238.2V6.563H13.192a1.445,1.445,0,0,0-1.63,1.562V10h2.773l-.443,2.891h-2.33v6.988A10,10,0,0,0,20,10Z"/><path class="b" d="M326.51,219.922l.443-2.891H324.18v-1.876a1.445,1.445,0,0,1,1.63-1.562h1.261v-2.461a15.378,15.378,0,0,0-2.238-.2,3.529,3.529,0,0,0-3.777,3.891v2.2h-2.539v2.891h2.539v6.988a10.108,10.108,0,0,0,3.125,0v-6.988Z" transform="translate(-312.618 -207.032)"/></svg>