<svg xmlns="http://www.w3.org/2000/svg" width="32.5" height="50.893" viewBox="0 0 32.5 50.893"><defs><style>.a{fill:#fff;stroke:#fff;stroke-width:0.5px;}</style></defs><g transform="translate(0.25 0.25)"><g transform="translate(4.449 15.726)"><g transform="translate(7.425 6.847)"><path class="a" d="M-10.984-422.985a.533.533,0,0,0-.533.533.532.532,0,0,0,.533.532.532.532,0,0,0,.533-.532h0A.533.533,0,0,0-10.984-422.985Z" transform="translate(11.517 422.985)"/></g><g transform="translate(10.621 6.847)"><path class="a" d="M-.738-422.985a.533.533,0,0,0-.532.533.532.532,0,0,0,.532.532.532.532,0,0,0,.533-.532h0A.533.533,0,0,0-.738-422.985Z" transform="translate(1.27 422.985)"/></g><g transform="translate(8.491 9.51)"><path class="a" d="M-7.035-413.381a1.065,1.065,0,0,0,1.065-1.064H-8.1a1.064,1.064,0,0,0,1.064,1.065Z" transform="translate(8.1 414.446)"/></g><g transform="translate(10.333 4.549)"><path class="a" d="M-2.192-430.3l.066-.029c-.014-.008-.029-.015-.042-.025C-2.175-430.336-2.185-430.318-2.192-430.3Z" transform="translate(2.192 430.354)"/></g><path class="a" d="M-17.643-439.292a1.8,1.8,0,0,0,.025-.3,1.857,1.857,0,0,0-1.855-1.855,1.8,1.8,0,0,0-.3.025,1.859,1.859,0,0,0-1.8-1.424,1.8,1.8,0,0,0-.3.025,1.855,1.855,0,0,0-2.233-1.375q-.079.019-.156.045a1.843,1.843,0,0,0-2.565-.466,1.836,1.836,0,0,0-.466.466,1.855,1.855,0,0,0-2.345,1.174c-.017.051-.032.1-.044.156a1.8,1.8,0,0,0-.3-.025,1.858,1.858,0,0,0-1.8,1.424,1.8,1.8,0,0,0-.3-.025,1.857,1.857,0,0,0-1.855,1.855,1.908,1.908,0,0,0,.024.3,1.858,1.858,0,0,0-1.424,1.8,1.838,1.838,0,0,0,.331,1.05,1.837,1.837,0,0,0,.061,2.188,1.852,1.852,0,0,0,.319,2.6,1.854,1.854,0,0,0,.712.342,1.907,1.907,0,0,0-.024.295,1.857,1.857,0,0,0,1.447,1.81c.006.026.019.052.027.079a3.515,3.515,0,0,0-.7,2.1v4.371a.455.455,0,0,0,.455.454h13.849a.455.455,0,0,0,.454-.454v-4.372a3.521,3.521,0,0,0-.7-2.1c.007-.027.021-.053.027-.079a1.858,1.858,0,0,0,1.447-1.81,1.8,1.8,0,0,0-.025-.3,1.851,1.851,0,0,0,1.375-2.227,1.854,1.854,0,0,0-.344-.714,1.836,1.836,0,0,0,.062-2.188,1.838,1.838,0,0,0,.331-1.05A1.859,1.859,0,0,0-17.643-439.292Zm-14.6,12.271a2.634,2.634,0,0,1,2.367-2.616c-.062,2.259-.264,5.2-1.141,6.533h-1.226Zm6.475-5.671h-.071a3.26,3.26,0,0,1-3.148-3.355v-1.888a1.483,1.483,0,0,1,.325-1.087,3.233,3.233,0,0,1,2.119-.417h.776a4.552,4.552,0,0,1,2.645,1.086,1.376,1.376,0,0,1,.5,1.07v1.234a3.263,3.263,0,0,1-3.149,3.358Zm-1.291,1.085.043-.175h2.485l.044.175a2.571,2.571,0,0,0,1.534,1.758c-2.175,1.7-3.464,1.7-5.641,0a2.571,2.571,0,0,0,1.534-1.758Zm-2.91,8.5a15.934,15.934,0,0,0,.984-5.9c2.39,1.81,4.028,1.811,6.417.006.075,2.756.282,4.725.885,5.891Zm10.664,0h-1.275c-.956-1.009-1.059-4.446-1.1-6.533a2.633,2.633,0,0,1,2.369,2.617Zm1.848-12.991a.931.931,0,0,1,.327.707.947.947,0,0,1-.4.767.454.454,0,0,0-.107.634.457.457,0,0,0,.107.107.943.943,0,0,1,.223,1.315.943.943,0,0,1-.77.4.884.884,0,0,1-.137-.015.455.455,0,0,0-.518.38.454.454,0,0,0,.061.3.927.927,0,0,1,.139.485.946.946,0,0,1-.945.945.446.446,0,0,0-.366.2,3.521,3.521,0,0,0-2.094-.692h-.048a1.669,1.669,0,0,1-1.621-1.267l-.131-.519,0-.011a4.309,4.309,0,0,0,2.029-3.689v-1.234a2.263,2.263,0,0,0-.845-1.781,5.344,5.344,0,0,0-3.213-1.284H-26.2c-1.289-.011-2.41-.011-3.105.681a2.32,2.32,0,0,0-.593,1.733v1.888a4.307,4.307,0,0,0,2.081,3.722l-.125.5a1.67,1.67,0,0,1-1.622,1.266h-.047a3.515,3.515,0,0,0-2.093.692.446.446,0,0,0-.366-.2.946.946,0,0,1-.945-.945.929.929,0,0,1,.139-.485.457.457,0,0,0-.162-.626.458.458,0,0,0-.3-.058.766.766,0,0,1-.129.014.943.943,0,0,1-.944-.942.943.943,0,0,1,.4-.77.454.454,0,0,0,.107-.634.451.451,0,0,0-.107-.107.946.946,0,0,1-.4-.767.933.933,0,0,1,.327-.707.456.456,0,0,0,.043-.642.469.469,0,0,0-.043-.043.929.929,0,0,1-.327-.707.945.945,0,0,1,.945-.945.915.915,0,0,1,.138.015.454.454,0,0,0,.518-.381.453.453,0,0,0-.06-.3.926.926,0,0,1-.139-.485.945.945,0,0,1,.945-.945.935.935,0,0,1,.485.14.455.455,0,0,0,.488-.015.464.464,0,0,0,.2-.45.78.78,0,0,1-.015-.129.947.947,0,0,1,.946-.946.928.928,0,0,1,.485.14A.455.455,0,0,0-29-441.8a.461.461,0,0,0,.2-.451.882.882,0,0,1-.014-.128.944.944,0,0,1,.943-.946.945.945,0,0,1,.532.163.455.455,0,0,0,.632-.124.446.446,0,0,0,.052-.1.935.935,0,0,1,1.187-.585.935.935,0,0,1,.585.585.456.456,0,0,0,.58.279.466.466,0,0,0,.1-.052.934.934,0,0,1,.529-.162.914.914,0,0,1,.945.882.9.9,0,0,1-.015.2.454.454,0,0,0,.381.518.453.453,0,0,0,.3-.06.929.929,0,0,1,.485-.14.946.946,0,0,1,.945.946.875.875,0,0,1-.015.137.456.456,0,0,0,.382.518.456.456,0,0,0,.3-.06.931.931,0,0,1,.486-.14.946.946,0,0,1,.945.945.926.926,0,0,1-.139.485.457.457,0,0,0,.162.626.458.458,0,0,0,.3.058.791.791,0,0,1,.13-.014.946.946,0,0,1,.945.945.929.929,0,0,1-.327.707.454.454,0,0,0-.045.641.468.468,0,0,0,.045.045Z" transform="translate(35.327 444.942)"/></g><g transform="translate(0 5.49)"><g transform="translate(11.975 38.216)"><path class="a" d="M-9.282-351.4a1.911,1.911,0,0,1-1.911-1.911,1.911,1.911,0,0,1,1.911-1.911,1.911,1.911,0,0,1,1.911,1.911h0A1.912,1.912,0,0,1-9.282-351.4Zm0-2.866a.955.955,0,0,0-.955.955.955.955,0,0,0,.955.956.955.955,0,0,0,.955-.955h0A.957.957,0,0,0-9.282-354.264Z" transform="translate(11.193 355.22)"/></g><g transform="translate(0.957 35.35)"><path class="a" d="M-21.176-363.455H-46.048a.478.478,0,0,1-.477-.479.478.478,0,0,1,.477-.477h24.872a.478.478,0,0,1,.477.479A.478.478,0,0,1-21.176-363.455Z" transform="translate(46.525 364.411)"/></g><g transform="translate(0.955 5.733)"><path class="a" d="M-21.179-458.429H-46.051a.478.478,0,0,1-.478-.478.478.478,0,0,1,.478-.478h24.872a.478.478,0,0,1,.478.478A.478.478,0,0,1-21.179-458.429Z" transform="translate(46.529 459.385)"/></g><g transform="translate(11.497 2.866)"><path class="a" d="M-8.426-467.62h-3.821a.478.478,0,0,1-.478-.478.478.478,0,0,1,.478-.478h3.821a.478.478,0,0,1,.478.478A.478.478,0,0,1-8.426-467.62Z" transform="translate(12.725 468.576)"/></g><g transform="translate(0 8.599)"><path class="a" d="M-48.16-447.327h-.955a.478.478,0,0,1-.478-.478h0v-1.911a.478.478,0,0,1,.478-.477h.955a.478.478,0,0,1,.478.477h0v1.911a.478.478,0,0,1-.478.478Z" transform="translate(49.593 450.193)"/></g><g transform="translate(0 13.376)"><path class="a" d="M-48.16-432.01h-.955a.478.478,0,0,1-.478-.477h0V-434.4a.478.478,0,0,1,.478-.478h.955a.478.478,0,0,1,.478.478h0v1.911a.478.478,0,0,1-.478.477Z" transform="translate(49.593 434.876)"/></g><g transform="translate(25.828 16.242)"><path class="a" d="M34.661-421.863h-.954a.478.478,0,0,1-.478-.478h0v-2.866a.478.478,0,0,1,.478-.478h.954a.477.477,0,0,1,.478.477h0v2.866a.478.478,0,0,1-.477.478Z" transform="translate(-33.229 425.685)"/></g><g transform="translate(0.903 15.198)"><path class="a" d="M-46.166-427.971a.477.477,0,0,1-.337-.14l-.052-.052a.477.477,0,0,1,0-.675h0l.052-.053a.477.477,0,0,1,.675,0,.478.478,0,0,1,.14.339v.105a.479.479,0,0,1-.294.442A.489.489,0,0,1-46.166-427.971Z" transform="translate(46.696 429.032)"/></g><g transform="translate(0.957)"><path class="a" d="M-25.029-432.865H-42.194a4.335,4.335,0,0,1-4.331-4.331v-36.241a4.336,4.336,0,0,1,4.331-4.332h17.166a4.337,4.337,0,0,1,4.33,4.332v1.89l.032,16.353-.032,18A4.335,4.335,0,0,1-25.029-432.865Zm-17.165-43.947a3.379,3.379,0,0,0-3.375,3.376V-437.2a3.379,3.379,0,0,0,3.375,3.376h17.166a3.38,3.38,0,0,0,3.375-3.376l.032-18-.032-16.351v-1.89a3.379,3.379,0,0,0-3.375-3.376Z" transform="translate(46.525 477.768)"/></g></g><g transform="translate(26.267 0)"><g transform="translate(0.001 2.867)"><path class="a" d="M37.028-483.312a.477.477,0,0,1-.477-.477h0a1.435,1.435,0,0,0-1.433-1.433.478.478,0,0,1-.478-.478.478.478,0,0,1,.478-.478,2.392,2.392,0,0,1,2.39,2.39.477.477,0,0,1-.478.477Z" transform="translate(-34.64 486.179)"/></g><g transform="translate(0)"><path class="a" d="M39.893-489.639a.477.477,0,0,1-.477-.477h0a4.3,4.3,0,0,0-4.3-4.3.478.478,0,0,1-.478-.478.478.478,0,0,1,.478-.478,5.261,5.261,0,0,1,5.255,5.255.478.478,0,0,1-.478.478Z" transform="translate(-34.638 495.372)"/></g></g></g></svg>