<svg xmlns="http://www.w3.org/2000/svg" width="300" height="47.602" viewBox="0 0 300 47.602"><defs><style>.a{fill:#fff;}</style></defs><g transform="translate(-1304.478 -1993.683)"><path class="a" d="M1312.32,2012.884h0a7.839,7.839,0,0,1,7.84-7.84h11.757v-3.919h-11.759a11.757,11.757,0,0,0-11.759,11.759h0v11.759h-3.923v3.921h3.923v4.037h3.919v-4.037h3.919v-3.921h-3.919Z" transform="translate(0 8.238)"/><path class="a" d="M1339.458,2001.523l-7.84-7.84-7.84,7.84h5.88v11.763a7.843,7.843,0,0,1-7.838,7.838v0H1310.06v3.919h11.759v0a11.755,11.755,0,0,0,11.749-11.531h.011v-.228h0v-11.761Z" transform="translate(6.179)"/><g transform="translate(1360.312 2000.415)"><path class="a" d="M1331.332,2010.3a.314.314,0,0,1-.354-.356v-1.772a.314.314,0,0,1,.354-.356h1.85v-8.1h-1.85a.313.313,0,0,1-.354-.354v-1.774a.312.312,0,0,1,.354-.354h6.63c.247,0,.373.116.373.354v1.774c0,.236-.126.354-.373.354h-1.85v8.1h1.85c.247,0,.373.118.373.356v1.772c0,.238-.126.356-.373.356Z" transform="translate(-1330.978 -1996.485)"/><path class="a" d="M1345.069,1999.3a.313.313,0,0,1,.354.354v8.925a4.069,4.069,0,0,1-1.382,3.2,5.262,5.262,0,0,1-3.622,1.222,5.793,5.793,0,0,1-3.371-.933,3.729,3.729,0,0,1-1.633-2.484c-.063-.234.05-.352.337-.352h2.09a.452.452,0,0,1,.411.28,1.589,1.589,0,0,0,.767.885,2.769,2.769,0,0,0,1.38.329,2.219,2.219,0,0,0,1.605-.579,2.053,2.053,0,0,0,.6-1.551v-.784a4.185,4.185,0,0,1-2.6.8,4.847,4.847,0,0,1-3.529-1.353,5.026,5.026,0,0,1,0-6.919,4.851,4.851,0,0,1,3.529-1.344,4.189,4.189,0,0,1,2.651.858v-.2a.314.314,0,0,1,.356-.354Zm-4.819,7.113a2.174,2.174,0,0,0,1.7-.729,2.716,2.716,0,0,0,.653-1.883,2.686,2.686,0,0,0-.664-1.886,2.179,2.179,0,0,0-1.69-.731,2.248,2.248,0,0,0-1.725.74,2.949,2.949,0,0,0-.01,3.761A2.254,2.254,0,0,0,1340.25,2006.408Z" transform="translate(-1326.416 -1994.534)"/><path class="a" d="M1352.436,2007.876a.339.339,0,0,1-.28.391,5.21,5.21,0,0,1-1.418.226,2.732,2.732,0,0,1-2.5-1.085,4.5,4.5,0,0,1-3.175,1.085,3.914,3.914,0,0,1-2.922-1.131,4.09,4.09,0,0,1-1.11-3v-4.873a.314.314,0,0,1,.356-.354h2.09a.314.314,0,0,1,.356.354v4.5a2.163,2.163,0,0,0,.531,1.53,1.838,1.838,0,0,0,1.428.579,2.041,2.041,0,0,0,1.494-.55,1.97,1.97,0,0,0,.56-1.466v-4.593a.313.313,0,0,1,.354-.354h2.111a.314.314,0,0,1,.354.354v5.864q0,.727.615.727a2.435,2.435,0,0,0,.579-.057.332.332,0,0,1,.411.3Z" transform="translate(-1319.854 -1994.376)"/><path class="a" d="M1359.107,2008.033a.327.327,0,0,1-.3.392,5.03,5.03,0,0,1-1.4.225,2.452,2.452,0,0,1-2.354-1.14,4.607,4.607,0,0,1-3.137,1.14,4.844,4.844,0,0,1-3.537-1.344,5.107,5.107,0,0,1,0-6.966,4.837,4.837,0,0,1,3.537-1.344,4.194,4.194,0,0,1,2.653.858v-.2a.313.313,0,0,1,.354-.354h2.054a.313.313,0,0,1,.354.354v5.864q0,.727.617.727a2.4,2.4,0,0,0,.577-.057c.251-.023.382.076.394.3Zm-6.945-1.568a2.162,2.162,0,0,0,1.7-.74,2.742,2.742,0,0,0,.653-1.894,2.773,2.773,0,0,0-.653-1.913,2.17,2.17,0,0,0-1.7-.74,2.243,2.243,0,0,0-1.736.74,2.726,2.726,0,0,0-.674,1.913,2.7,2.7,0,0,0,.674,1.894A2.236,2.236,0,0,0,1352.162,2006.465Z" transform="translate(-1313.233 -1994.534)"/><path class="a" d="M1356.388,2010.994a3.323,3.323,0,0,1-2.081-.6,1.942,1.942,0,0,1-.776-1.624v-11.538a.314.314,0,0,1,.356-.356h2.09a.315.315,0,0,1,.356.356v10.642q0,.708.634.708a2.329,2.329,0,0,0,.558-.057c.251-.023.381.076.394.3l.185,1.551a.327.327,0,0,1-.3.392A4.945,4.945,0,0,1,1356.388,2010.994Z" transform="translate(-1306.013 -1996.878)"/><path class="a" d="M1368.349,2010.377a.308.308,0,0,1-.28.392,5.11,5.11,0,0,1-1.437.225,2.409,2.409,0,0,1-2.353-1.177,4.313,4.313,0,0,1-3.1,1.177,4.843,4.843,0,0,1-3.538-1.344,5.106,5.106,0,0,1,0-6.965,4.836,4.836,0,0,1,3.538-1.345,4.285,4.285,0,0,1,2.6.8v-4.909a.314.314,0,0,1,.356-.356h2.109a.314.314,0,0,1,.354.356v10.642q0,.708.617.708a2.205,2.205,0,0,0,.559-.057c.263-.023.4.076.413.3Zm-6.926-1.567a2.162,2.162,0,0,0,1.7-.74,2.742,2.742,0,0,0,.653-1.894,2.773,2.773,0,0,0-.653-1.913,2.169,2.169,0,0,0-1.7-.74,2.25,2.25,0,0,0-1.738.74,2.734,2.734,0,0,0-.672,1.913,2.7,2.7,0,0,0,.672,1.894A2.242,2.242,0,0,0,1361.423,2008.81Z" transform="translate(-1302.981 -1996.878)"/><path class="a" d="M1374.668,2008.033a.326.326,0,0,1-.3.392,5.016,5.016,0,0,1-1.4.225,2.453,2.453,0,0,1-2.353-1.14,4.6,4.6,0,0,1-3.135,1.14,4.847,4.847,0,0,1-3.54-1.344,5.108,5.108,0,0,1,0-6.966,4.84,4.84,0,0,1,3.54-1.344,4.188,4.188,0,0,1,2.651.858v-.2a.314.314,0,0,1,.356-.354h2.052a.315.315,0,0,1,.356.354v5.864q0,.727.615.727a2.426,2.426,0,0,0,.58-.057c.248-.023.379.076.392.3Zm-6.944-1.568a2.163,2.163,0,0,0,1.7-.74,2.75,2.75,0,0,0,.653-1.894,2.782,2.782,0,0,0-.653-1.913,2.171,2.171,0,0,0-1.7-.74,2.242,2.242,0,0,0-1.736.74,2.724,2.724,0,0,0-.672,1.913,2.694,2.694,0,0,0,.672,1.894A2.235,2.235,0,0,0,1367.724,2006.465Z" transform="translate(-1296.007 -1994.534)"/><path class="a" d="M1380.959,2010.377a.307.307,0,0,1-.278.392,5.137,5.137,0,0,1-1.439.225,2.409,2.409,0,0,1-2.353-1.177,4.309,4.309,0,0,1-3.1,1.177,4.843,4.843,0,0,1-3.538-1.344,5.107,5.107,0,0,1,0-6.965,4.836,4.836,0,0,1,3.538-1.345,4.286,4.286,0,0,1,2.6.8v-4.909a.314.314,0,0,1,.356-.356h2.109a.313.313,0,0,1,.354.356v10.642c0,.472.207.708.617.708a2.224,2.224,0,0,0,.56-.057c.261-.023.4.076.411.3Zm-6.925-1.567a2.161,2.161,0,0,0,1.7-.74,2.742,2.742,0,0,0,.653-1.894,2.773,2.773,0,0,0-.653-1.913,2.169,2.169,0,0,0-1.7-.74,2.25,2.25,0,0,0-1.738.74,2.734,2.734,0,0,0-.672,1.913,2.7,2.7,0,0,0,.672,1.894A2.243,2.243,0,0,0,1374.034,2008.81Z" transform="translate(-1289.022 -1996.878)"/><path class="a" d="M1383.436,2010.74a7.055,7.055,0,0,1-4.062-1.113,4.161,4.161,0,0,1-1.894-2.958c-.038-.249.074-.375.335-.375h2.223a.4.4,0,0,1,.392.3,2.132,2.132,0,0,0,1.055,1.306,3.936,3.936,0,0,0,2.025.487,2.988,2.988,0,0,0,1.635-.392,1.215,1.215,0,0,0,.607-1.064,1.164,1.164,0,0,0-.43-.936,2.786,2.786,0,0,0-1.113-.522q-.68-.168-1.511-.3a13.624,13.624,0,0,1-1.662-.373,7.238,7.238,0,0,1-1.513-.625,2.867,2.867,0,0,1-1.111-1.159,3.812,3.812,0,0,1-.43-1.875,3.531,3.531,0,0,1,1.448-2.93,6,6,0,0,1,3.78-1.121,6.673,6.673,0,0,1,3.735,1.016,4,4,0,0,1,1.848,2.737c.061.236-.05.356-.335.356h-2.242a.432.432,0,0,1-.411-.28,1.858,1.858,0,0,0-.84-1.121,2.971,2.971,0,0,0-1.587-.392,2.814,2.814,0,0,0-1.605.417,1.311,1.311,0,0,0-.618,1.132,1.274,1.274,0,0,0,.571,1.093,3.377,3.377,0,0,0,1.429.54c.571.095,1.188.219,1.848.375a14.788,14.788,0,0,1,1.847.558,3.064,3.064,0,0,1,1.429,1.132,3.435,3.435,0,0,1,.571,2.033,3.492,3.492,0,0,1-1.486,2.941A6.394,6.394,0,0,1,1383.436,2010.74Z" transform="translate(-1279.511 -1996.642)"/><path class="a" d="M1395.23,2007.876a.341.341,0,0,1-.28.391,5.227,5.227,0,0,1-1.42.226,2.728,2.728,0,0,1-2.5-1.085,4.5,4.5,0,0,1-3.175,1.085,3.913,3.913,0,0,1-2.922-1.131,4.089,4.089,0,0,1-1.11-3v-4.873a.313.313,0,0,1,.354-.354h2.092a.313.313,0,0,1,.354.354v4.5a2.165,2.165,0,0,0,.533,1.53,1.838,1.838,0,0,0,1.429.579,2.042,2.042,0,0,0,1.494-.55,1.969,1.969,0,0,0,.558-1.466v-4.593a.314.314,0,0,1,.356-.354h2.111a.314.314,0,0,1,.354.354v5.864c0,.485.2.727.615.727a2.449,2.449,0,0,0,.579-.057.332.332,0,0,1,.411.3Z" transform="translate(-1272.483 -1994.376)"/><path class="a" d="M1394.34,2008.65a5.906,5.906,0,0,1-3.192-.776,2.965,2.965,0,0,1-1.439-2.157c-.038-.247.082-.373.356-.373l1.829.019a.485.485,0,0,1,.411.262q.392,1.008,2.035,1.009a2.362,2.362,0,0,0,1.111-.225.672.672,0,0,0,.421-.6q0-.487-.6-.7a6.656,6.656,0,0,0-1.456-.316,15.209,15.209,0,0,1-1.717-.31,2.86,2.86,0,0,1-1.458-.84,2.4,2.4,0,0,1-.6-1.717,2.484,2.484,0,0,1,1.138-2.128,5.114,5.114,0,0,1,3.007-.8,5.481,5.481,0,0,1,2.941.738,2.739,2.739,0,0,1,1.372,1.951c.038.251-.074.373-.335.373h-1.85a.411.411,0,0,1-.373-.223,1.335,1.335,0,0,0-.645-.664,2.55,2.55,0,0,0-2.128-.036.639.639,0,0,0-.4.569.8.8,0,0,0,.607.746,6.321,6.321,0,0,0,1.477.364c.577.082,1.155.19,1.725.327a2.926,2.926,0,0,1,1.467.84,2.353,2.353,0,0,1,.607,1.7,2.509,2.509,0,0,1-1.159,2.168A5.452,5.452,0,0,1,1394.34,2008.65Z" transform="translate(-1265.974 -1994.534)"/><path class="a" d="M1400.342,2009.926a3.938,3.938,0,0,1-2.884-1.036,3.785,3.785,0,0,1-1.053-2.83v-3.23h-1.719a.313.313,0,0,1-.354-.354v-1.551a.313.313,0,0,1,.354-.354h1.719V1998.2a.314.314,0,0,1,.354-.356h2.092a.314.314,0,0,1,.354.356v2.372h2.931a.313.313,0,0,1,.354.354v1.551a.313.313,0,0,1-.354.354H1399.2v3.137a1.493,1.493,0,0,0,.419,1.121,1.549,1.549,0,0,0,1.131.411,5.765,5.765,0,0,0,1.4-.169.313.313,0,0,1,.411.28l.242,1.605a.383.383,0,0,1-.28.411A9.141,9.141,0,0,1,1400.342,2009.926Z" transform="translate(-1260.849 -1995.81)"/><path class="a" d="M1411.028,2008.033a.327.327,0,0,1-.3.392,5.016,5.016,0,0,1-1.4.225,2.449,2.449,0,0,1-2.351-1.14,4.611,4.611,0,0,1-3.137,1.14,4.849,4.849,0,0,1-3.539-1.344,5.108,5.108,0,0,1,0-6.966,4.842,4.842,0,0,1,3.539-1.344,4.189,4.189,0,0,1,2.651.858v-.2a.313.313,0,0,1,.356-.354h2.052a.314.314,0,0,1,.356.354v5.864c0,.485.2.727.615.727a2.42,2.42,0,0,0,.579-.057c.249-.023.38.076.392.3Zm-6.944-1.568a2.163,2.163,0,0,0,1.7-.74,2.75,2.75,0,0,0,.653-1.894,2.782,2.782,0,0,0-.653-1.913,2.171,2.171,0,0,0-1.7-.74,2.242,2.242,0,0,0-1.736.74,2.725,2.725,0,0,0-.672,1.913,2.7,2.7,0,0,0,.672,1.894A2.235,2.235,0,0,0,1404.084,2006.465Z" transform="translate(-1255.759 -1994.534)"/><path class="a" d="M1412.248,1999a3.966,3.966,0,0,1,2.95,1.13,4.079,4.079,0,0,1,1.121,3v4.871a.314.314,0,0,1-.354.356h-2.093c-.248,0-.375-.118-.375-.356v-4.5a2.165,2.165,0,0,0-.531-1.532,1.845,1.845,0,0,0-1.429-.58,2.064,2.064,0,0,0-1.5.552,1.938,1.938,0,0,0-.569,1.466v4.591a.315.315,0,0,1-.356.356h-2.09a.314.314,0,0,1-.356-.356v-5.861a.644.644,0,0,0-.729-.729,4.073,4.073,0,0,0-.409.054c-.274,0-.411-.1-.411-.3v-1.532a.39.39,0,0,1,.28-.411,3.691,3.691,0,0,1,1.342-.224,2.325,2.325,0,0,1,2.242,1.176A4.418,4.418,0,0,1,1412.248,1999Z" transform="translate(-1248.911 -1994.534)"/><path class="a" d="M1416.967,2009.926a3.938,3.938,0,0,1-2.885-1.036,3.786,3.786,0,0,1-1.056-2.83v-3.23h-1.717a.312.312,0,0,1-.354-.354v-1.551a.312.312,0,0,1,.354-.354h1.717V1998.2a.314.314,0,0,1,.354-.356h2.092a.314.314,0,0,1,.354.356v2.372h2.933a.313.313,0,0,1,.354.354v1.551a.313.313,0,0,1-.354.354h-2.933v3.137a1.494,1.494,0,0,0,.422,1.121,1.544,1.544,0,0,0,1.13.411,5.783,5.783,0,0,0,1.4-.169.313.313,0,0,1,.411.28l.242,1.605a.385.385,0,0,1-.28.411A9.137,9.137,0,0,1,1416.967,2009.926Z" transform="translate(-1242.446 -1995.81)"/><path class="a" d="M1418.492,1999.522a1.8,1.8,0,0,1-2.372,0,1.457,1.457,0,0,1-.476-1.1,1.429,1.429,0,0,1,.476-1.094,1.818,1.818,0,0,1,2.372,0,1.429,1.429,0,0,1,.476,1.094A1.457,1.457,0,0,1,1418.492,1999.522Zm-2.231,11.165a.315.315,0,0,1-.356-.356v-8.346a.314.314,0,0,1,.356-.354h2.09a.314.314,0,0,1,.356.354v8.346a.315.315,0,0,1-.356.356Z" transform="translate(-1237.258 -1996.869)"/><path class="a" d="M1422.121,2008.194a.393.393,0,0,1-.392-.263l-3.9-8.381q-.151-.411.278-.411h2.223a.411.411,0,0,1,.411.261l2.427,5.413,2.465-5.413a.4.4,0,0,1,.392-.261h2.2a.313.313,0,0,1,.28.112.322.322,0,0,1,0,.3l-3.9,8.381a.392.392,0,0,1-.392.263Z" transform="translate(-1234.885 -1994.376)"/><path class="a" d="M1435.469,2008.033a.327.327,0,0,1-.3.392,5.017,5.017,0,0,1-1.4.225,2.452,2.452,0,0,1-2.354-1.14,4.605,4.605,0,0,1-3.135,1.14,4.846,4.846,0,0,1-3.54-1.344,5.107,5.107,0,0,1,0-6.966,4.839,4.839,0,0,1,3.54-1.344,4.187,4.187,0,0,1,2.65.858v-.2a.314.314,0,0,1,.356-.354h2.052a.314.314,0,0,1,.356.354v5.864q0,.727.615.727a2.424,2.424,0,0,0,.58-.057c.249-.023.38.076.392.3Zm-6.945-1.568a2.159,2.159,0,0,0,1.7-.74,2.744,2.744,0,0,0,.655-1.894,2.775,2.775,0,0,0-.655-1.913,2.167,2.167,0,0,0-1.7-.74,2.242,2.242,0,0,0-1.736.74,2.724,2.724,0,0,0-.672,1.913,2.694,2.694,0,0,0,.672,1.894A2.234,2.234,0,0,0,1428.525,2006.465Z" transform="translate(-1228.704 -1994.534)"/></g><g transform="translate(1360.516 2022.82)"><path class="a" d="M1336.212,2019.284a5.221,5.221,0,0,1-3.716-1.327,4.55,4.55,0,0,1-1.42-3.489,4.656,4.656,0,0,1,1.374-3.512,4.957,4.957,0,0,1,3.592-1.325,4.832,4.832,0,0,1,3.559,1.306,4.658,4.658,0,0,1,1.317,3.455c0,.076,0,.183-.01.327s-.008.246-.008.307a.354.354,0,0,1-.392.318h-6.7a2.322,2.322,0,0,0,.887,1.325,2.6,2.6,0,0,0,1.578.485,1.954,1.954,0,0,0,1.53-.558.747.747,0,0,1,.449-.188h2.092a.355.355,0,0,1,.289.1.252.252,0,0,1,.011.274,3.76,3.76,0,0,1-1.663,1.829A5.485,5.485,0,0,1,1336.212,2019.284Zm-2.429-5.6h4.463a2,2,0,0,0-.615-1.428,2.1,2.1,0,0,0-1.513-.55,2.323,2.323,0,0,0-1.559.55A2.261,2.261,0,0,0,1333.782,2013.682Z" transform="translate(-1331.075 -2005.167)"/><path class="a" d="M1343.454,2009.63a3.975,3.975,0,0,1,2.95,1.129,4.073,4.073,0,0,1,1.121,3v4.873a.314.314,0,0,1-.356.356h-2.09c-.251,0-.375-.118-.375-.356v-4.5a2.168,2.168,0,0,0-.531-1.532,1.845,1.845,0,0,0-1.428-.579,2.06,2.06,0,0,0-1.5.552,1.935,1.935,0,0,0-.569,1.464v4.593a.315.315,0,0,1-.356.356h-2.09a.314.314,0,0,1-.356-.356v-5.861a.645.645,0,0,0-.729-.729,3.854,3.854,0,0,0-.409.057c-.274,0-.411-.1-.411-.3v-1.53a.392.392,0,0,1,.28-.413,3.7,3.7,0,0,1,1.342-.223,2.326,2.326,0,0,1,2.242,1.176A4.416,4.416,0,0,1,1343.454,2009.63Z" transform="translate(-1325.267 -2005.167)"/><path class="a" d="M1348.173,2020.559a3.938,3.938,0,0,1-2.884-1.037,3.785,3.785,0,0,1-1.056-2.83v-3.23h-1.717a.313.313,0,0,1-.354-.356v-1.549a.312.312,0,0,1,.354-.354h1.717v-2.37a.314.314,0,0,1,.354-.356h2.092a.314.314,0,0,1,.354.356v2.37h2.933a.313.313,0,0,1,.354.354v1.549a.314.314,0,0,1-.354.356h-2.933v3.137a1.491,1.491,0,0,0,.421,1.119,1.543,1.543,0,0,0,1.129.411,5.77,5.77,0,0,0,1.4-.167.312.312,0,0,1,.411.281l.242,1.605a.381.381,0,0,1-.28.411A9.118,9.118,0,0,1,1348.173,2020.559Z" transform="translate(-1318.802 -2006.443)"/><path class="a" d="M1354.852,2009.8a.338.338,0,0,1,.28.411l-.244,1.793c-.036.223-.173.316-.411.28a5.141,5.141,0,0,0-1.026-.1,2.478,2.478,0,0,0-1.774.653,2.33,2.33,0,0,0-.689,1.774v4.014a.315.315,0,0,1-.356.356h-2.09a.314.314,0,0,1-.356-.356v-5.861a.645.645,0,0,0-.729-.729,3.84,3.84,0,0,0-.409.057c-.274,0-.411-.1-.411-.3v-1.53a.393.393,0,0,1,.278-.413,4.12,4.12,0,0,1,1.344-.223,2.239,2.239,0,0,1,2.261,1.271,3.921,3.921,0,0,1,3.042-1.271A4.158,4.158,0,0,1,1354.852,2009.8Z" transform="translate(-1313.849 -2005.167)"/><path class="a" d="M1356.389,2019.284a5.222,5.222,0,0,1-3.717-1.327,4.547,4.547,0,0,1-1.418-3.489,4.661,4.661,0,0,1,1.372-3.512,4.958,4.958,0,0,1,3.594-1.325,4.827,4.827,0,0,1,3.557,1.306,4.65,4.65,0,0,1,1.317,3.455c0,.076,0,.183-.01.327s-.008.246-.008.307a.353.353,0,0,1-.392.318h-6.7a2.328,2.328,0,0,0,.889,1.325,2.6,2.6,0,0,0,1.576.485,1.961,1.961,0,0,0,1.531-.558.748.748,0,0,1,.449-.188h2.09a.362.362,0,0,1,.291.1.256.256,0,0,1,.008.274,3.76,3.76,0,0,1-1.662,1.829A5.485,5.485,0,0,1,1356.389,2019.284Zm-2.427-5.6h4.463a2.014,2.014,0,0,0-.617-1.428,2.1,2.1,0,0,0-1.513-.55,2.324,2.324,0,0,0-1.559.55A2.258,2.258,0,0,0,1353.962,2013.682Z" transform="translate(-1308.738 -2005.167)"/><path class="a" d="M1359.5,2020.937c-.249,0-.373-.118-.373-.356v-12.359c0-.236.124-.356.373-.356h1.532a.514.514,0,0,1,.427.224l4.762,7.265,4.762-7.265a.517.517,0,0,1,.43-.224h1.568a.314.314,0,0,1,.354.356v12.359a.313.313,0,0,1-.354.356h-2.221a.315.315,0,0,1-.356-.356v-7.094l-3.23,5.021a.455.455,0,0,1-.43.228h-1.007a.512.512,0,0,1-.43-.228l-3.268-5.075v7.149a.313.313,0,0,1-.354.356Z" transform="translate(-1300.027 -2007.12)"/><path class="a" d="M1378.348,2018.509a.341.341,0,0,1-.28.392,5.234,5.234,0,0,1-1.42.225,2.736,2.736,0,0,1-2.5-1.083,4.512,4.512,0,0,1-3.175,1.083,3.922,3.922,0,0,1-2.923-1.13,4.1,4.1,0,0,1-1.11-3v-4.874a.314.314,0,0,1,.356-.354h2.09a.313.313,0,0,1,.354.354v4.5a2.171,2.171,0,0,0,.533,1.531,1.845,1.845,0,0,0,1.428.579,2.041,2.041,0,0,0,1.494-.552,1.963,1.963,0,0,0,.56-1.464v-4.6a.313.313,0,0,1,.354-.354h2.111a.314.314,0,0,1,.354.354v5.864c0,.485.2.729.615.729a2.671,2.671,0,0,0,.579-.057.331.331,0,0,1,.411.3Z" transform="translate(-1291.375 -2005.01)"/><path class="a" d="M1372.912,2025.967a.359.359,0,0,1-.392-.335l-.242-1.55c-.038-.213.086-.348.373-.411a1.879,1.879,0,0,0,1.167-.474,1.731,1.731,0,0,0,.326-1.167v-9.412a.313.313,0,0,1,.354-.354h2.111a.313.313,0,0,1,.354.354v9.094a4.49,4.49,0,0,1-.988,3.165A4.127,4.127,0,0,1,1372.912,2025.967Zm2.651-15.366a1.7,1.7,0,0,1-1.195-.449,1.446,1.446,0,0,1-.485-1.1,1.418,1.418,0,0,1,.485-1.091,1.727,1.727,0,0,1,1.195-.438,1.7,1.7,0,0,1,1.178.438,1.416,1.416,0,0,1,.485,1.091,1.445,1.445,0,0,1-.485,1.1A1.674,1.674,0,0,1,1375.562,2010.6Z" transform="translate(-1285.473 -2007.502)"/><path class="a" d="M1380.537,2019.284a5.212,5.212,0,0,1-3.714-1.327,4.542,4.542,0,0,1-1.421-3.489,4.662,4.662,0,0,1,1.372-3.512,4.963,4.963,0,0,1,3.595-1.325,4.836,4.836,0,0,1,3.559,1.306,4.657,4.657,0,0,1,1.315,3.455c0,.076,0,.183-.009.327s-.01.246-.01.307a.352.352,0,0,1-.392.318h-6.7a2.325,2.325,0,0,0,.887,1.325,2.6,2.6,0,0,0,1.578.485,1.958,1.958,0,0,0,1.53-.558.746.746,0,0,1,.449-.188h2.09a.363.363,0,0,1,.291.1.252.252,0,0,1,.008.274,3.756,3.756,0,0,1-1.66,1.829A5.5,5.5,0,0,1,1380.537,2019.284Zm-2.427-5.6h4.463a2.008,2.008,0,0,0-.618-1.428,2.1,2.1,0,0,0-1.511-.55,2.319,2.319,0,0,0-1.559.55A2.248,2.248,0,0,0,1378.11,2013.682Z" transform="translate(-1282.007 -2005.167)"/><path class="a" d="M1388.863,2009.8a.338.338,0,0,1,.282.411L1388.9,2012a.314.314,0,0,1-.411.28,5.14,5.14,0,0,0-1.026-.1,2.476,2.476,0,0,0-1.774.653,2.325,2.325,0,0,0-.691,1.774v4.014a.313.313,0,0,1-.354.356h-2.092a.313.313,0,0,1-.354-.356v-5.861a.646.646,0,0,0-.729-.729,3.938,3.938,0,0,0-.411.057c-.274,0-.411-.1-.411-.3v-1.53a.394.394,0,0,1,.28-.413,4.12,4.12,0,0,1,1.344-.223,2.241,2.241,0,0,1,2.261,1.271,3.918,3.918,0,0,1,3.042-1.271A4.135,4.135,0,0,1,1388.863,2009.8Z" transform="translate(-1276.2 -2005.167)"/><path class="a" d="M1390.4,2019.284a5.222,5.222,0,0,1-3.717-1.327,4.55,4.55,0,0,1-1.42-3.489,4.656,4.656,0,0,1,1.374-3.512,4.953,4.953,0,0,1,3.592-1.325,4.832,4.832,0,0,1,3.559,1.306,4.657,4.657,0,0,1,1.317,3.455c0,.076,0,.183-.01.327s-.008.246-.008.307a.355.355,0,0,1-.394.318h-6.7a2.325,2.325,0,0,0,.887,1.325,2.6,2.6,0,0,0,1.578.485,1.953,1.953,0,0,0,1.529-.558.748.748,0,0,1,.449-.188h2.092a.355.355,0,0,1,.288.1.251.251,0,0,1,.01.274,3.759,3.759,0,0,1-1.662,1.829A5.49,5.49,0,0,1,1390.4,2019.284Zm-2.429-5.6h4.462a2.014,2.014,0,0,0-.615-1.428,2.1,2.1,0,0,0-1.513-.55,2.323,2.323,0,0,0-1.559.55A2.258,2.258,0,0,0,1387.973,2013.682Z" transform="translate(-1271.089 -2005.167)"/><path class="a" d="M1395.173,2019.284a5.911,5.911,0,0,1-3.192-.775,2.967,2.967,0,0,1-1.439-2.158c-.038-.249.082-.373.356-.373l1.829.019a.485.485,0,0,1,.411.261q.392,1.008,2.035,1.007a2.362,2.362,0,0,0,1.11-.223.672.672,0,0,0,.421-.6c0-.323-.2-.554-.6-.7a6.663,6.663,0,0,0-1.456-.318,14.721,14.721,0,0,1-1.718-.31,2.887,2.887,0,0,1-1.458-.839,2.407,2.407,0,0,1-.6-1.717,2.488,2.488,0,0,1,1.138-2.13,5.129,5.129,0,0,1,3.006-.8,5.48,5.48,0,0,1,2.942.737,2.744,2.744,0,0,1,1.371,1.951c.038.249-.074.375-.335.375h-1.85a.409.409,0,0,1-.373-.225,1.333,1.333,0,0,0-.643-.664,2.285,2.285,0,0,0-1.075-.253,2.235,2.235,0,0,0-1.055.217.643.643,0,0,0-.4.569.8.8,0,0,0,.607.748,6.337,6.337,0,0,0,1.477.362c.578.08,1.155.192,1.726.329a2.923,2.923,0,0,1,1.467.838,2.362,2.362,0,0,1,.607,1.7,2.506,2.506,0,0,1-1.159,2.166A5.47,5.47,0,0,1,1395.173,2019.284Z" transform="translate(-1265.256 -2005.167)"/><path class="a" d="M1408.645,2009.772a.286.286,0,0,1,.27.112.328.328,0,0,1-.008.3l-4.65,10.347a4.391,4.391,0,0,1-4.163,2.948,7.534,7.534,0,0,1-2.2-.3.31.31,0,0,1-.279-.394l.242-1.605q.092-.373.411-.3a6.646,6.646,0,0,0,1.418.169,1.957,1.957,0,0,0,1.943-1.214l.392-.842-4.427-8.813a.275.275,0,0,1-.008-.3.345.345,0,0,1,.291-.112h2.221a.454.454,0,0,1,.411.261l2.895,5.826,2.615-5.826a.408.408,0,0,1,.411-.261Z" transform="translate(-1257.499 -2005.01)"/><path class="a" d="M1406.375,2020.937c-.248,0-.373-.118-.373-.356v-12.359c0-.236.125-.356.373-.356h2.2a.314.314,0,0,1,.354.356v5h6.051v-5a.314.314,0,0,1,.354-.356h2.2c.248,0,.373.12.373.356v12.359c0,.238-.124.356-.373.356h-2.2a.313.313,0,0,1-.354-.356v-4.874h-6.051v4.874a.313.313,0,0,1-.354.356Z" transform="translate(-1248.134 -2007.12)"/><path class="a" d="M1421.446,2017.957a5.891,5.891,0,0,1-7.45,0,5.053,5.053,0,0,1,0-7,5.9,5.9,0,0,1,7.45,0,5.052,5.052,0,0,1,0,7Zm-5.507-1.671a2.667,2.667,0,0,0,3.565,0,2.455,2.455,0,0,0,.683-1.818,2.49,2.49,0,0,0-.683-1.831,2.645,2.645,0,0,0-3.565,0,2.489,2.489,0,0,0-.682,1.831A2.453,2.453,0,0,0,1415.938,2016.286Z" transform="translate(-1240.846 -2005.167)"/><path class="a" d="M1431.246,2009.63a3.939,3.939,0,0,1,2.941,1.129,4.085,4.085,0,0,1,1.113,3v4.873c0,.238-.124.356-.375.356h-2.09a.314.314,0,0,1-.356-.356v-4.5a2.194,2.194,0,0,0-.523-1.532,1.8,1.8,0,0,0-1.4-.579,1.527,1.527,0,0,0-1.231.552,2.184,2.184,0,0,0-.468,1.464v4.593a.313.313,0,0,1-.354.356h-2.111a.313.313,0,0,1-.354-.356v-4.5a2.3,2.3,0,0,0-.487-1.532,1.6,1.6,0,0,0-1.287-.579,1.777,1.777,0,0,0-1.372.552,2.054,2.054,0,0,0-.514,1.464v4.593a.314.314,0,0,1-.354.356h-2.092a.314.314,0,0,1-.354-.356v-5.861a.645.645,0,0,0-.729-.729,3.938,3.938,0,0,0-.411.057c-.274,0-.411-.1-.411-.3v-1.53a.394.394,0,0,1,.281-.413,3.709,3.709,0,0,1,1.344-.223,2.263,2.263,0,0,1,2.2,1.14,4.291,4.291,0,0,1,3.173-1.14,3.58,3.58,0,0,1,2.952,1.325A4.106,4.106,0,0,1,1431.246,2009.63Z" transform="translate(-1234.824 -2005.167)"/><path class="a" d="M1432.659,2011.974a4.871,4.871,0,0,1,3.557,1.344,5.105,5.105,0,0,1,0,6.964,4.863,4.863,0,0,1-3.557,1.346,4.238,4.238,0,0,1-2.615-.824v.168c0,.238-.124.356-.375.356h-2.052a.315.315,0,0,1-.356-.356v-13.107a.315.315,0,0,1,.356-.354h2.109a.315.315,0,0,1,.356.354v4.892A4.328,4.328,0,0,1,1432.659,2011.974Zm-1.934,6.732a2.195,2.195,0,0,0,1.708.737,2.255,2.255,0,0,0,1.728-.737,3,3,0,0,0,0-3.809,2.247,2.247,0,0,0-1.728-.737,2.188,2.188,0,0,0-1.708.737,3.072,3.072,0,0,0,0,3.809Z" transform="translate(-1224.602 -2007.512)"/><path class="a" d="M1440.944,2009.8a.338.338,0,0,1,.282.411l-.244,1.793a.314.314,0,0,1-.411.28,5.144,5.144,0,0,0-1.026-.1,2.476,2.476,0,0,0-1.774.653,2.324,2.324,0,0,0-.691,1.774v4.014a.313.313,0,0,1-.354.356h-2.092a.313.313,0,0,1-.354-.356v-5.861a.646.646,0,0,0-.729-.729,3.93,3.93,0,0,0-.411.057c-.274,0-.411-.1-.411-.3v-1.53a.4.4,0,0,1,.28-.413,4.121,4.121,0,0,1,1.344-.223,2.242,2.242,0,0,1,2.261,1.271,3.918,3.918,0,0,1,3.042-1.271A4.133,4.133,0,0,1,1440.944,2009.8Z" transform="translate(-1218.549 -2005.167)"/><path class="a" d="M1442.483,2019.284a5.222,5.222,0,0,1-3.717-1.327,4.55,4.55,0,0,1-1.42-3.489,4.663,4.663,0,0,1,1.374-3.512,4.958,4.958,0,0,1,3.594-1.325,4.83,4.83,0,0,1,3.556,1.306,4.657,4.657,0,0,1,1.317,3.455c0,.076,0,.183-.011.327s-.008.246-.008.307a.354.354,0,0,1-.392.318h-6.7a2.325,2.325,0,0,0,.887,1.325,2.6,2.6,0,0,0,1.578.485,1.962,1.962,0,0,0,1.532-.558.737.737,0,0,1,.447-.188h2.092a.355.355,0,0,1,.289.1.252.252,0,0,1,.01.274,3.76,3.76,0,0,1-1.663,1.829A5.483,5.483,0,0,1,1442.483,2019.284Zm-2.429-5.6h4.463a2,2,0,0,0-.615-1.428,2.1,2.1,0,0,0-1.513-.55,2.322,2.322,0,0,0-1.559.55A2.257,2.257,0,0,0,1440.054,2013.682Z" transform="translate(-1213.438 -2005.167)"/><path class="a" d="M1447.254,2019.284a5.911,5.911,0,0,1-3.192-.775,2.966,2.966,0,0,1-1.439-2.158c-.038-.249.082-.373.356-.373l1.829.019a.482.482,0,0,1,.411.261q.392,1.008,2.036,1.007a2.363,2.363,0,0,0,1.11-.223.671.671,0,0,0,.421-.6c0-.323-.2-.554-.6-.7a6.658,6.658,0,0,0-1.456-.318,14.719,14.719,0,0,1-1.717-.31,2.884,2.884,0,0,1-1.458-.839,2.4,2.4,0,0,1-.6-1.717,2.485,2.485,0,0,1,1.14-2.13,5.118,5.118,0,0,1,3-.8,5.474,5.474,0,0,1,2.941.737,2.743,2.743,0,0,1,1.371,1.951c.038.249-.073.375-.335.375h-1.85a.41.41,0,0,1-.373-.225,1.333,1.333,0,0,0-.642-.664,2.286,2.286,0,0,0-1.075-.253,2.237,2.237,0,0,0-1.056.217.642.642,0,0,0-.4.569.806.806,0,0,0,.607.748,6.343,6.343,0,0,0,1.477.362c.577.08,1.155.192,1.726.329a2.923,2.923,0,0,1,1.467.838,2.363,2.363,0,0,1,.607,1.7,2.508,2.508,0,0,1-1.157,2.166A5.482,5.482,0,0,1,1447.254,2019.284Z" transform="translate(-1207.605 -2005.167)"/></g></g></svg>